<?xml version="1.0" encoding="utf-8"?>
<!-- Generator: Adobe Illustrator 27.0.0, SVG Export Plug-In . SVG Version: 6.00 Build 0)  -->
<svg version="1.1" xmlns="http://www.w3.org/2000/svg" xmlns:xlink="http://www.w3.org/1999/xlink" x="0px" y="0px"
  viewBox="0 0 512 512" style="enable-background:new 0 0 512 512;" xml:space="preserve">
  <style type="text/css">
    .st0 {
      fill: #FFFFFF;
    }

    .st1 {
      fill: none;
      stroke: #ffffff;
      stroke-width: 16;
      stroke-linecap: round;
      stroke-miterlimit: 10;
    }
  </style>
  <g id="Conveyor">
    <g>
      <path class="st0" d="M468,390c0-46.32-37.68-84-84-84H128c-46.32,0-84,37.68-84,84c0-46.32,37.68-84,84-84h256
			C430.32,306,468,343.68,468,390z" />
      <path class="st0" d="M384,294H128c-53.02,0-96,42.98-96,96s42.98,96,96,96h256c53.02,0,96-42.98,96-96S437.02,294,384,294L384,294z M128,462
			c-39.76,0-72-32.24-72-72s32.24-72,72-72h256c39.76,0,72,32.24,72,72s-32.24,72-72,72H128L128,462z" />
    </g>
    <g>
      <path class="st0" d="M256,366c13.23,0,24,10.77,24,24s-10.77,24-24,24c-13.23,0-24-10.77-24-24S242.77,366,256,366 M256,342
			c-26.51,0-48,21.49-48,48s21.49,48,48,48s48-21.49,48-48S282.51,342,256,342L256,342z" />
    </g>
    <g>
      <path class="st0" d="M128,366c13.23,0,24,10.77,24,24s-10.77,24-24,24s-24-10.77-24-24S114.77,366,128,366 M128,342c-26.51,0-48,21.49-48,48
			s21.49,48,48,48s48-21.49,48-48S154.51,342,128,342L128,342z" />
    </g>
    <g>
      <path class="st0" d="M384,366c13.23,0,24,10.77,24,24s-10.77,24-24,24s-24-10.77-24-24S370.77,366,384,366 M384,342c-26.51,0-48,21.49-48,48
			s21.49,48,48,48s48-21.49,48-48S410.51,342,384,342L384,342z" />
    </g>
  </g>
  <g id="File">
    <g>
      <path class="st0" d="M290.79,50L340,99.21V266H172V50H290.79 M292.45,30H168c-8.84,0-16,7.16-16,16v224c0,8.84,7.16,16,16,16h176
			c8.84,0,16-7.16,16-16V97.55c0-4.24-1.69-8.31-4.69-11.31l-51.55-51.55C300.76,31.69,296.69,30,292.45,30L292.45,30z" />
    </g>
    <line class="st1" x1="210" y1="149" x2="302" y2="149" />
    <line class="st1" x1="210" y1="185" x2="302" y2="185" />
    <line class="st1" x1="210" y1="222" x2="302" y2="222" />
    <g>
      <path class="st0" d="M290.9,50.11l48.99,48.99H290.9V50.11 M292.45,30h-5.55c-8.84,0-16,7.16-16,16v57.1c0,8.84,7.16,16,16,16H344
			c8.84,0,16-7.16,16-16v-5.55c0-4.24-1.69-8.31-4.69-11.31l-51.55-51.55C300.76,31.69,296.69,30,292.45,30L292.45,30z" />
    </g>
  </g>
</svg>